# xmcd
#
# Track frame offsets:
#	150
#	15942
#	42842
#	64767
#	82342
#	99667
#	117957
#	133852
#	150305
#	167755
#	184700
#	203730
#
# Disc length: 2990 seconds
#
# Revision: 1
# Processed by: cddbd v1.5PL3 Copyright (c) Steve Scherf et al.
# Submitted via: EasyCDDAExtractor 5.0.6
#
DISCID=980bac0c
DTITLE=Various Artist - Bird Up! the charlie parker remix project
DYEAR=2004
DGENRE=Remix
TTITLE0=Now's the Time (No Time Like Now) - Redhawk
TTITLE1=Relaxin' at Camarillo (August 29) - Me'Shell NdegéOcello
TTITLE2=Salt Peanuts (The Mr. Peanut Chronicles) - Hal Willner
TTITLE3=Bird of Paradise (Gone) - Serj Tankian
TTITLE4=Congo Blues (Silencer) - Ravi Coltrane
TTITLE5=Bebop (Live at the Rooftop) - RZA
TTITLE6=Steeplechase (Sittin' on 22's) - Dan the Automator
TTITLE7=Cheers [X-Ecutioners Style] - Rob Swift
TTITLE8=Night in Tunisia (Downpour)
TTITLE9=All the Shadows of Nuff - Garth Hudson
TTITLE10=Perhaps (Someday the Roof Will Get Fixed) - Dan the Automator
TTITLE11=Barbados (Where Fish Fly) - Hubert Laws
EXTD=
EXTT0=
EXTT1=
EXTT2=
EXTT3=
EXTT4=
EXTT5=
EXTT6=
EXTT7=
EXTT8=
EXTT9=
EXTT10=
EXTT11=
PLAYORDER=
